<svg version="1" xmlns="http://www.w3.org/2000/svg" width="640" height="640" viewBox="0 0 480.000000 480.000000"><path d="M219.8 1.5c-.2.2-3 .6-6.3.9-3.3.4-7.1.8-8.5 1-7.8 1.2-11.1 1.9-16.3 3.2-3.2.7-7.2 1.6-8.9 1.9-1.7.3-3.5.8-4 1.1-.4.3-1.6.7-2.5.9-11.3 2.2-34.9 12.4-55.3 23.8-3.6 2-21.1 13.7-22 14.7-.3.3-1.8 1.6-3.5 2.9C82.1 59.8 68 73.3 59 84c-3 3.6-5.8 6.6-6.2 6.8-.5.2-.8 1-.8 1.8s-.4 1.4-.8 1.4c-1.1 0-12.7 16.5-14.8 21-.4.8-1.3 2.2-2 3-2.2 2.7-14.4 27-15.9 32-.1.3-.7 1.8-1.4 3.5-2.5 6.1-7.5 21.4-8.7 27-.1.5-.6 2.8-1.2 5-1.1 3.9-1.3 5.2-2.6 12.5-1.3 7.8-1.6 9.8-2.3 16-1 8.1-1 43.5-.1 51.5 3.5 30.8 12.6 60.3 26.7 86.8 5.4 10.1 6.5 12.1 7.1 12.7.3.3 3 4.3 6.2 9 3.1 4.7 6.4 9.5 7.5 10.7 1 1.2 2.9 3.6 4.1 5.2 9.2 11.8 29.2 31.5 38.6 38 1.2.8 2.3 1.8 2.6 2.1.3.3 2.1 1.7 4 3s3.7 2.7 4 3c1.4 1.7 18.6 11.9 27.4 16.4 13 6.5 21.7 10.3 31.6 13.6 15.7 5.3 31.6 9.1 44 10.6 2.5.3 6.9.9 9.7 1.3 7.1 1.1 40.3 1.1 47.8.1 3.3-.5 8.3-1.1 11-1.5 2.8-.3 9.3-1.5 14.5-2.6 10.7-2.3 9.9-2.1 16-3.8 2.5-.7 5.2-1.5 6-1.7 2.2-.5 12-4 15.5-5.5 1.7-.7 3.2-1.3 3.5-1.4 2.8-.9 11.4-4.9 20-9.3 26.8-13.9 52.2-34 71-56.2 3-3.6 5.8-6.7 6.3-6.8.4-.2.7-1 .7-1.8s.4-1.4.8-1.4c1.1 0 12.7-16.5 14.8-21 .4-.8 1.3-2.2 1.9-3 5.3-6.4 21.3-42.8 24-54.7.2-1 1.1-4.3 1.9-7.3.8-3 1.7-6.7 2.1-8.3.3-1.5.7-3.8 1-5.2.3-1.4.7-3.7 1-5.3 2.9-14.4 4.1-50.3 2.3-67.2-3.5-31.4-14.2-64.5-30.1-92.6-2.9-5.1-14.9-23.2-17.4-26.1-1-1.2-2.9-3.6-4.1-5.2C415.8 76.7 393.8 55.7 381 47c-1.9-1.3-3.7-2.7-4-3-1.2-1.5-17.4-11.2-26-15.7-24.8-12.9-52.4-21.8-77-24.9-2.5-.3-6.9-.9-9.8-1.3-5-.8-43.7-1.3-44.4-.6z"/></svg>